<?xml version="1.0" encoding="UTF-8" standalone="no"?>
<!-- Created with Inkscape (http://www.inkscape.org/) -->

<svg
   xmlns:dc="http://purl.org/dc/elements/1.1/"
   xmlns:cc="http://creativecommons.org/ns#"
   xmlns:rdf="http://www.w3.org/1999/02/22-rdf-syntax-ns#"
   xmlns:svg="http://www.w3.org/2000/svg"
   xmlns="http://www.w3.org/2000/svg"
   xmlns:sodipodi="http://sodipodi.sourceforge.net/DTD/sodipodi-0.dtd"
   xmlns:inkscape="http://www.inkscape.org/namespaces/inkscape"
   width="640"
   height="480"
   id="svg2"
   version="1.1"
   inkscape:version="0.47 r22583"
   sodipodi:docname="island.svg"
   inkscape:export-filename="/Users/adam/code/ld48/ld17/island.png"
   inkscape:export-xdpi="90"
   inkscape:export-ydpi="90">
  <defs
     id="defs4">
    <inkscape:perspective
       sodipodi:type="inkscape:persp3d"
       inkscape:vp_x="0 : 526.18109 : 1"
       inkscape:vp_y="0 : 1000 : 0"
       inkscape:vp_z="744.09448 : 526.18109 : 1"
       inkscape:persp3d-origin="372.04724 : 350.78739 : 1"
       id="perspective10" />
  </defs>
  <sodipodi:namedview
     id="base"
     pagecolor="#ffffff"
     bordercolor="#666666"
     borderopacity="1.0"
     inkscape:pageopacity="0.0"
     inkscape:pageshadow="2"
     inkscape:zoom="1.07"
     inkscape:cx="323.10779"
     inkscape:cy="255.42223"
     inkscape:document-units="px"
     inkscape:current-layer="layer1"
     showgrid="true"
     inkscape:window-width="1086"
     inkscape:window-height="767"
     inkscape:window-x="234"
     inkscape:window-y="22"
     inkscape:window-maximized="0"
     inkscape:snap-grids="false"
     showguides="true"
     inkscape:guide-bbox="true"
     inkscape:snap-to-guides="false">
    <inkscape:grid
       type="xygrid"
       id="grid2818"
       empspacing="20"
       visible="true"
       enabled="true"
       snapvisiblegridlinesonly="true"
       dotted="true" />
    <sodipodi:guide
       position="0,0"
       orientation="0,640"
       id="guide2851" />
    <sodipodi:guide
       position="640,0"
       orientation="-480,0"
       id="guide2853" />
    <sodipodi:guide
       position="640,480"
       orientation="0,-640"
       id="guide2855" />
    <sodipodi:guide
       position="319.14894,525.53191"
       orientation="480,0"
       id="guide2857" />
    <sodipodi:guide
       orientation="1,0"
       position="-140.42553,307.44681"
       id="guide2859" />
    <sodipodi:guide
       orientation="0,1"
       position="39.361702,240.42553"
       id="guide2861" />
  </sodipodi:namedview>
  <metadata
     id="metadata7">
    <rdf:RDF>
      <cc:Work
         rdf:about="">
        <dc:format>image/svg+xml</dc:format>
        <dc:type
           rdf:resource="http://purl.org/dc/dcmitype/StillImage" />
        <dc:title></dc:title>
      </cc:Work>
    </rdf:RDF>
  </metadata>
  <g
     inkscape:groupmode="layer"
     id="layer2"
     inkscape:label="Image">
    <path
       style="fill:#00ff00"
       d="M 327.46875 192.5 C 326.23036 192.49058 324.99095 192.51186 323.75 192.5625 C 317.62108 192.59221 311.50389 192.65443 305.375 192.59375 C 300.80444 192.58127 296.23009 192.71542 291.71875 193.53125 C 285.02454 194.72013 278.36626 196.02796 271.625 196.9375 C 263.95796 198.2383 256.2686 199.24172 248.53125 200.03125 C 239.2109 201.09843 229.84842 201.95405 220.46875 202.21875 C 214.41585 202.15315 208.35849 202.06614 202.3125 202.4375 C 194.84168 202.83492 187.37618 203.46146 180 204.75 C 174.47165 205.56444 168.99547 206.65048 163.75 208.625 C 158.94245 210.43568 154.18485 212.3267 149.5 214.4375 C 146.08308 216.06679 142.65556 217.72415 139.21875 219.3125 C 131.12638 222.89993 148.74434 215.02945 122.6875 228.4375 C 118.76486 230.45597 129.66246 224.36557 133.96875 221.90625 C 133.40704 222.2068 132.6637 222.59657 132.28125 222.78125 C 131.92894 222.95136 131.59508 223.15942 131.25 223.34375 C 124.86035 227.02384 118.31488 230.34288 112.34375 234.65625 L 125.125 229.5625 C 123.16726 230.70948 122.08421 231.38228 119.09375 233.125 C 121.64328 231.83961 124.1271 230.43135 126.59375 229 C 126.24859 229.20401 125.74265 229.52254 125.46875 229.6875 C 125.43446 229.70815 125.45501 229.73837 125.4375 229.75 C 125.71272 229.62867 126.7538 229.08152 127.1875 228.875 C 130.62517 227.24926 134.0906 225.68493 137.5 224 C 142.17435 221.75566 146.99894 219.80992 151.84375 217.96875 C 157.12955 215.97668 162.57895 214.6657 168.125 213.65625 C 175.44148 212.26447 182.88464 211.63303 190.3125 211.25 C 196.36518 211.04959 202.4135 211.00807 208.46875 210.9375 C 217.99215 210.59429 227.49235 209.6031 236.96875 208.625 C 244.61423 207.94403 252.21254 207.12766 259.78125 205.84375 C 266.41562 204.84166 273.033 203.66271 279.65625 202.59375 C 284.12232 201.83336 288.638 201.66302 293.15625 201.5 C 299.28472 201.32858 305.40164 201.38841 311.53125 201.4375 C 316.43809 201.36594 321.32909 201.54199 326.21875 201.9375 C 330.09934 202.26573 333.99839 202.41065 337.875 202.78125 C 342.92869 203.37511 347.98168 203.94184 353.0625 204.25 C 359.13079 204.31855 365.17407 204.78659 371.21875 205.28125 C 374.6401 205.59613 378.06464 205.79091 381.5 205.8125 C 386.1947 205.75158 390.88124 206.13206 395.53125 206.75 C 399.32193 207.44256 403.16433 207.66045 407 207.90625 C 412.74003 208.169 418.38667 209.31655 424.0625 210.125 C 429.03965 210.81481 434.05709 210.91748 439.0625 211.28125 C 445.15562 212.04694 451.25709 212.85715 457.34375 213.6875 C 461.28111 214.28614 465.20557 215.05082 469 216.28125 C 471.35535 217.27095 473.80532 218.08814 476.125 219.15625 C 478.43928 220.59846 480.83486 221.92465 483.21875 223.25 C 485.62468 224.84004 488.22487 226.06332 490.8125 227.3125 C 492.58112 228.13402 494.49105 228.63808 496.28125 229.40625 L 509.28125 220.78125 C 507.52759 219.9224 505.66189 219.4198 503.84375 218.71875 C 501.26058 217.45855 498.5094 216.49918 496.125 214.84375 C 493.74174 213.55535 491.47825 212.06071 489.1875 210.625 C 486.98498 209.3168 484.13575 208.78517 481.8125 207.625 C 477.88904 206.2082 473.70852 205.61061 469.59375 205.03125 C 463.51065 204.22233 457.39572 203.52403 451.34375 202.5 C 446.35012 202.07277 441.36436 201.88351 436.375 201.40625 C 430.70829 200.71455 425.12134 199.57339 419.4375 199.03125 C 415.61873 198.60571 411.74289 198.55057 407.9375 197.96875 C 403.30731 197.39103 398.66529 196.88596 394 196.75 C 390.51301 196.6904 387.01415 196.63638 383.53125 196.4375 C 377.43705 196.10103 371.35342 195.61285 365.25 195.46875 C 360.25818 195.16411 355.32478 194.59519 350.375 193.90625 C 346.46109 193.4433 342.52977 193.27412 338.59375 193.0625 C 334.88473 192.78857 331.18393 192.52825 327.46875 192.5 z M 137.5 222.71875 C 136.28611 223.42765 132.63057 225.51191 129.46875 227.34375 C 132.01075 225.84722 134.53773 224.33253 137.125 222.90625 C 137.35529 222.7793 137.37219 222.78801 137.5 222.71875 z "
       id="path2868" />
    <path
       style="fill:#00ff00"
       id="path2870"
       d="M 492.1546,232.79595 C 489.9801,233.06727 487.91129,233.77562 485.75237,234.16065 485.36388,234.0849 484.96454,234.0519 484.58689,233.93338 484.58638,233.93322 482.31004,232.94976 482.28246,232.93848 481.07559,232.44507 479.81934,232.11919 478.58013,231.71708 476.00279,230.89824 473.32552,230.55788 470.63771,230.39162 466.87679,230.25492 463.11347,230.19206 459.35024,230.15767 454.00148,230.58568 448.82272,229.51256 443.61398,228.48972 439.33376,227.7571 435.07748,226.90031 430.83926,225.95981 427.99903,225.3185 425.45952,223.90793 422.5997,223.38048 416.70692,222.17843 410.66826,221.98643 404.67612,221.76564 397.10424,221.5701 389.52922,221.53918 381.95521,221.54307 373.79984,221.60384 365.64471,221.55641 357.48988,221.4584 344.68639,221.07899 331.89662,221.55965 319.11795,222.3162 309.43563,222.88626 299.75533,223.53073 290.09444,224.39591 282.12117,224.89599 274.2132,225.98748 266.28159,226.89403 258.78676,227.99793 251.2305,228.48717 243.67006,228.84282 237.8316,229.07778 231.98906,229.13209 226.14674,229.15367 220.01402,229.14815 213.88167,229.07326 207.74911,229.03439 201.4271,228.99685 195.10527,229.06346 188.7841,229.16092 184.31598,229.25433 179.84705,229.14103 175.37881,229.10471 169.25816,229.09294 163.13771,229.08916 157.01709,229.06787 150.9589,229.01506 144.90081,229.09494 138.84297,229.14799 134.89438,229.17203 130.94576,229.18595 126.99724,229.22034 125.05671,229.41514 123.02204,228.99201 121.09568,229.35758 134.80167,218.82788 130.51887,220.93844 141.06525,218.66808 147.87283,217.23011 154.6936,215.86497 161.53872,214.61712 168.73333,213.23184 176.04226,212.76938 183.30999,211.96396 188.87596,211.40333 194.4169,210.6399 199.97678,210.0236 203.80598,209.57088 207.66538,209.54815 211.51552,209.52628 217.04141,209.55997 222.56725,209.61446 228.09294,209.67543 236.76747,209.81105 245.44564,209.65613 254.11753,209.90788 262.01736,209.86214 269.81381,211.07676 277.65016,211.86937 286.78729,212.73264 295.96789,212.84333 305.13809,212.8507 312.41615,213.12387 319.62914,212.33892 326.82499,211.35227 336.02897,210.18892 345.22073,208.93575 354.45533,208.03264 359.84088,207.41451 365.25534,207.41955 370.66545,207.50071 379.26698,207.63461 387.86953,207.62981 396.4718,207.62306 404.78153,207.64716 413.08546,208.08154 421.39047,208.35319 427.98098,208.47292 434.56819,208.93933 441.07256,210.0212 445.84103,210.78788 450.39638,212.49996 455.01334,213.88067 458.78457,215.06909 462.68463,215.5692 466.61432,215.80704 470.51889,215.97735 474.42839,215.94332 478.3356,215.96361 480.77837,215.99667 483.22231,216.00307 485.66509,215.96258 486.72076,215.94508 488.05527,216.02272 489.11163,215.75559 484.49399,218.84147 480.15938,222.40007 475.25871,225.01323 474.47243,225.4325 473.50314,224.70649 472.62668,224.54579 471.24011,224.29155 469.85712,224.01794 468.4697,223.76843 461.83053,222.57444 455.16886,221.73322 448.47566,220.90315 434.46236,219.00165 420.34424,218.15247 406.24626,217.16947 398.33537,216.43049 390.37237,216.71402 382.45477,216.21022 375.13855,215.64855 367.94817,214.14084 360.66539,213.26577 354.13895,212.53826 347.57612,212.26839 341.01495,212.12258 334.18987,211.91622 327.37867,211.40603 320.55243,211.16731 313.21135,210.95576 305.86683,210.98177 298.52361,210.98299 292.79787,211.00072 287.0722,211.03026 281.34636,211.02974 275.31874,210.8044 269.33667,211.69067 263.35802,212.34398 258.38174,212.90773 253.38229,213.08772 248.4288,213.84911 244.16961,214.42021 239.93409,215.03992 235.7326,215.94774 231.04364,217.1875 225.96858,217.4068 221.59298,219.62709 226.89188,228.52377 230.30666,211.02903 235.90558,210.81207 238.3812,210.71613 240.85623,211.02965 243.3332,211.07971 247.58979,211.16575 251.43161,211.17625 255.71074,211.20566 272.35138,211.34933 288.99029,211.3693 305.62942,211.09748 313.81882,210.885 322.00558,210.89452 330.17954,210.34696 333.87539,210.01626 337.50941,209.23556 341.14827,208.53942 341.14827,208.53942 329.02456,217.68473 329.02456,217.68473 L 329.02456,217.68473 C 325.38907,218.30742 321.75547,219.0066 318.06963,219.25669 310.23458,219.67178 302.39597,219.26939 294.55689,219.14472 277.88118,218.91249 261.20625,219.01474 244.53188,219.33731 238.60419,219.44306 232.67848,219.60775 226.75129,219.72629 225.62148,219.74888 224.48587,219.87452 223.36139,219.76263 222.5782,219.6847 220.50276,219.69902 221.07794,219.16178 224.88625,215.60473 229.54121,213.07931 233.77284,210.03808 238.43245,208.66209 243.22686,207.83323 247.94356,206.68562 252.12601,205.83994 256.35584,205.36156 260.57806,204.75938 265.49964,204.12676 270.44752,203.82018 275.39083,203.4102 281.43796,202.81747 287.46774,201.87817 293.56265,202.1532 299.24493,202.14735 304.92702,202.16559 310.60911,202.20854 317.89418,202.25872 325.17872,202.3796 332.46148,202.57156 339.39265,202.76248 346.31521,203.16547 353.24719,203.2818 359.70334,203.45989 366.12801,204.05454 372.53678,204.85691 379.92376,205.75432 387.28195,206.9583 394.71369,207.42527 402.39463,207.94106 410.0946,208.18859 417.75979,208.94133 431.68961,210.15788 445.61969,211.40013 459.50269,213.0826 466.46614,213.81989 473.42319,214.60093 480.38333,215.36311 481.88641,215.52771 483.38957,215.70233 484.89856,215.79874 485.89211,215.86222 488.5619,215.11239 487.88497,215.84241 484.51832,219.47315 480.14225,222.01626 476.27089,225.10318 475.84449,224.82917 473.5509,224.91673 473.34941,224.91406 470.8942,224.88158 468.43803,224.9011 465.98309,224.94027 462.01975,224.96894 458.05095,225.00084 454.0928,224.76415 450.13665,224.41992 446.24179,223.7252 442.46685,222.45696 437.90407,221.12687 433.42667,219.43004 428.7146,218.69261 422.31959,217.63163 415.85855,217.07893 409.37374,217.018 401.14506,216.695 392.92359,216.0414 384.68246,216.18688 375.98651,216.16425 367.28983,216.12942 358.59467,216.27824 353.2358,216.39815 347.87332,216.49241 342.52428,216.86167 333.37998,217.56848 324.28392,218.69537 315.21175,220.04018 307.89839,221.09313 300.55592,222.0566 293.14853,221.53303 284.00797,221.24964 274.86059,220.98877 265.7371,220.34934 257.93762,219.61937 250.15808,218.60039 242.31578,218.4307 233.57649,218.18263 224.83355,218.36674 216.09191,218.39343 210.43152,218.44656 204.77086,218.47214 199.11082,218.55896 195.31899,218.6179 191.52657,218.7296 187.75016,219.1015 182.28188,219.62958 176.83996,220.39385 171.36229,220.83177 164.13304,221.50737 156.90648,222.17057 149.75915,223.50372 142.75397,224.77579 135.78802,226.23881 128.87216,227.93374 118.91244,230.13723 116.80079,231.46343 133.9696,220.00413 135.78954,220.23725 137.65819,220.05575 139.49337,220.14137 143.3755,220.17601 147.25774,220.18959 151.13994,220.21372 157.12426,220.26741 163.10883,220.34726 169.09352,220.29383 175.24801,220.2726 181.40232,220.26862 187.55684,220.25684 192.07664,220.22084 196.59727,220.10765 201.11692,220.20077 207.31797,220.30169 213.5197,220.36809 219.72168,220.33692 225.94834,220.30554 232.17488,220.24691 238.40165,220.24772 244.14846,220.25535 249.89734,220.26506 255.64143,220.0646 263.16252,219.75855 270.66126,219.14013 278.11787,218.08874 286.02233,217.201 293.90939,216.1683 301.85514,215.69788 311.35122,214.93336 320.86375,214.40473 330.38343,214.0393 343.2906,213.42814 356.2052,213.02083 369.12839,213.0019 377.3721,212.90032 385.61622,212.836 393.86058,212.89466 401.48168,212.90982 409.10489,212.85615 416.72372,213.07799 422.92727,213.292 429.14471,213.60143 435.28644,214.5505 438.11164,215.18391 440.65286,216.58161 443.49478,217.19312 447.65142,218.1734 451.82726,219.08209 456.03354,219.82461 461.16435,220.80549 466.29331,221.65703 471.5459,221.29671 475.46908,221.26057 479.4007,221.08437 483.3191,221.33927 486.05557,221.62843 488.75546,222.1453 491.38007,222.98833 493.57295,223.6259 495.93114,224.89227 498.17746,224.75393 500.35931,224.27073 502.52022,223.69378 504.69972,223.20323 504.69972,223.20323 492.1546,232.79595 492.1546,232.79595 z" />
    <path
       style="fill:#00ff00"
       id="path2872"
       d="M 186.6864,213.65515 C 194.9781,213.99839 203.2682,214.21446 211.55492,214.70366 224.16398,215.4878 236.79581,215.69452 249.4112,216.33353 254.63684,216.60752 259.86565,216.81608 265.09764,216.91 265.09764,216.91 252.68801,225.85233 252.68801,225.85233 L 252.68801,225.85233 C 247.68059,225.54595 242.68028,225.14735 237.67967,224.74635 225.2593,223.8287 212.81594,223.29675 200.37436,222.75241 191.5511,222.49741 182.72281,222.41786 173.90609,222.94059 173.90609,222.94059 186.6864,213.65515 186.6864,213.65515 z" />
    <path
       style="fill:#00ff00"
       id="path2874"
       d="M 228.28682,207.28394 C 237.42237,206.98705 246.55402,206.58359 255.6937,206.35959 271.32567,205.79092 286.95693,205.10201 302.56811,204.10889 311.54751,203.52535 320.44851,202.32577 329.31009,200.81187 333.8474,199.18859 338.59655,198.62989 343.36691,198.23657 345.24266,197.87718 347.28598,198.23916 349.15029,197.77544 349.25849,197.74853 349.47547,197.47316 349.38252,197.53473 335.05318,207.02672 341.13656,207.42043 333.86024,206.46459 326.34081,205.73451 318.77737,205.67281 311.22908,205.6747 306.9091,205.68949 302.58991,205.77607 298.27042,205.83388 295.67132,205.9329 293.05793,205.65382 290.4791,206.02612 287.76789,206.21416 285.15734,206.8597 282.50899,207.40759 280.70466,207.62118 278.98345,207.89779 277.24468,208.40572 277.24468,208.40572 289.6808,198.8799 289.6808,198.8799 L 289.6808,198.8799 C 291.40898,198.48868 293.18612,198.40087 294.91432,197.99746 297.57289,197.43427 300.24955,197.03076 302.95718,196.77869 305.58106,196.65216 308.21058,196.7047 310.83694,196.70396 314.95878,196.7619 319.07917,196.88516 323.19972,197.00086 330.9171,197.20344 338.63914,197.24256 346.35249,197.56652 353.43552,198.00805 349.33701,197.2753 336.73126,207.16396 336.67739,207.20622 336.66866,207.01402 336.60074,207.00538 336.23367,206.95869 335.86058,206.99722 335.49066,207.00616 334.86625,207.02125 334.24187,207.04296 333.61822,207.07748 332.81354,207.12202 332.01019,207.18804 331.20617,207.24332 326.43837,207.72714 321.80166,208.68881 317.17231,209.91476 308.66725,211.05137 300.1198,211.69285 291.55476,212.20676 275.92075,212.99251 260.28205,213.68462 244.64676,214.44653 234.92674,214.90472 225.21579,215.49599 215.53889,216.54585 215.53889,216.54585 228.28682,207.28394 228.28682,207.28394 z" />
    <path
       style="fill:#d3bc5f"
       d="M 515.59375 229.78125 C 512.94851 229.84989 510.2938 229.96648 507.65625 230.1875 C 501.47898 230.67618 495.3237 231.42396 489.125 231.625 C 479.91217 232.1901 470.69163 232.76479 461.5 233.59375 C 454.7574 234.236 448.01933 234.92925 441.25 235.1875 C 434.12712 235.20584 426.99785 235.3195 419.875 235.34375 C 411.15758 235.40382 402.43597 235.32464 393.71875 235.25 C 387.11309 235.17777 380.51192 235.18634 373.90625 235.28125 C 364.77141 235.36246 355.63507 235.41732 346.5 235.46875 C 336.10527 235.46233 325.70714 235.41724 315.3125 235.375 C 303.9193 235.41928 292.54811 235.48137 281.15625 235.25 C 266.9422 234.92154 252.72877 234.20819 238.53125 233.46875 C 226.63446 232.89745 214.75439 232.30408 202.84375 232.15625 C 196.30687 232.07249 189.7551 231.99213 183.21875 231.875 C 180.14697 231.82929 177.07183 231.809 174 231.875 C 169.63819 231.95389 165.29227 232.1426 160.9375 232.40625 C 153.92539 232.84593 146.93251 233.44643 139.90625 233.625 C 134.25218 233.90376 128.57673 234.12705 122.96875 234.9375 L 110.21875 244.1875 C 116.17615 243.22573 122.16127 242.59546 128.1875 242.21875 C 135.10892 242.06247 142.02641 241.59166 148.9375 241.21875 C 153.14389 241.00232 157.35119 240.92572 161.5625 240.90625 C 164.65463 240.92348 167.75186 240.91413 170.84375 240.875 C 177.63343 240.76848 184.42872 240.67666 191.21875 240.59375 C 203.30638 240.42783 215.39567 240.89497 227.46875 241.4375 C 241.71382 242.02981 255.93695 242.6973 270.1875 243.15625 C 281.37089 243.48879 292.56228 243.68258 303.75 243.78125 C 314.2171 243.76068 324.68909 243.73395 335.15625 243.71875 C 344.13269 243.76259 353.11756 243.79476 362.09375 243.875 C 368.68624 243.97189 375.25124 243.94492 381.84375 243.875 C 390.62381 243.80295 399.40724 243.7508 408.1875 243.8125 C 415.19144 243.83666 422.21477 243.91934 429.21875 243.9375 C 436.10172 243.79124 442.94054 243.00262 449.78125 242.28125 C 459.03595 241.32764 468.30132 240.58326 477.59375 240.125 C 483.57476 240.08302 489.53969 239.59012 495.5 239.15625 C 498.07039 238.97636 500.64367 238.91699 503.21875 238.84375 L 515.59375 229.78125 z "
       id="path3648" />
    <path
       style="fill:#d3bc5f"
       id="path3650"
       d="M 117.30019,232.27058 C 120.17158,231.42858 123.09165,230.65415 125.82165,229.40868 128.41112,228.61655 130.86593,227.24369 133.59996,227.10102 136.47827,227.15926 139.2742,227.88805 142.13688,228.21469 144.15962,228.68262 148.62855,228.91878 150.14401,230.45745 150.44105,230.75903 150.55981,231.19491 150.7677,231.56364 150.77642,231.98485 150.91889,232.42494 150.79386,232.82726 150.66065,233.25589 150.41306,233.70196 150.0303,233.9364 139.37775,240.46105 138.58772,241.9766 129.81003,243.47961 126.27472,243.87425 122.76899,244.44868 119.22822,244.81111 116.19724,245.13589 113.14797,245.15024 110.10369,245.17956 109.57527,245.1195 109.04684,245.05943 108.51842,244.99937 108.51842,244.99937 121.0553,236.03576 121.0553,236.03576 L 121.0553,236.03576 C 121.56387,236.05477 122.07245,236.07378 122.58103,236.09278 125.57678,236.0542 128.57389,235.95772 131.55609,235.65271 135.04483,235.26538 138.51936,234.74007 141.99694,234.27003 143.51011,233.95199 144.30487,233.83331 145.77674,233.32732 146.34722,233.1312 147.9663,232.32865 147.45346,232.6463 135.57464,240.00392 131.21572,240.97104 137.11932,239.28264 136.92055,237.79383 130.89388,237.30028 129.66319,237.06504 126.83743,236.74995 123.99206,236.10871 121.14224,236.41241 118.59262,237.00976 116.16368,238.05407 113.70849,238.94849 110.80361,239.99878 107.78734,240.78238 104.99442,242.11403 104.99442,242.11403 117.30019,232.27058 117.30019,232.27058 z" />
    <path
       style="fill:#d3bc5f"
       d="M 513.15625 221.625 C 513.14359 221.63132 513.13765 221.64988 513.125 221.65625 C 506.28167 225.61546 497.4651 229.30943 492.09375 235.78125 L 506.21875 229.6875 C 507.64878 229.53609 509.12465 229.55753 510.625 229.6875 C 514.77682 230.44293 518.30228 232.89306 521.6875 235.28125 L 522.8125 236.25 L 530.1875 231.65625 C 526.55358 229.56661 522.91846 227.4677 519.1875 225.5625 C 516.83237 224.35986 514.84345 223.02709 513.15625 221.625 z M 514.25 223.46875 C 514.11665 223.55698 513.60365 223.87181 513.25 224.09375 C 513.68957 223.80511 514.10159 223.55704 514.25 223.46875 z "
       id="path3652" />
    <path
       style="fill:#d3bc5f"
       d="M 512.0625 220.65625 C 506.72947 222.30462 501.81388 224.92651 497.59375 230.0625 C 496.95992 231.01487 496.37537 232.01512 495.84375 233.03125 C 493.56782 234.38939 491.30697 235.78411 489.125 237.28125 L 494.875 235.03125 C 494.57884 235.72612 494.32651 236.43757 494.09375 237.15625 L 508.3125 230.34375 C 508.37139 230.15668 508.43515 229.96786 508.5 229.78125 C 509.54932 229.43084 510.58427 229.0604 511.59375 228.625 C 515.13582 227.43256 516.71714 226.93723 519.125 225.53125 C 516.26356 224.06336 513.93799 222.39981 512.0625 220.65625 z "
       id="path3654" />
    <path
       style="fill:#d3bc5f"
       d="M 527.625 230.1875 L 525.625 231.40625 C 525.2934 231.49184 524.94445 231.58074 524.65625 231.65625 C 523.01122 232.14891 521.26955 232.73344 519.5625 232.96875 C 517.50723 233.25207 515.39015 233.02146 513.34375 233.4375 C 505.3366 234.38698 497.39084 235.79226 489.40625 236.90625 C 478.74147 238.62208 468.02197 240.15487 457.3125 241.5625 C 447.85552 242.91783 438.35552 244.03895 428.78125 243.75 C 420.25703 243.71785 411.7393 243.98679 403.21875 244.21875 C 388.9734 244.5995 374.72012 244.99144 360.46875 245.03125 C 354.18597 244.89481 347.91004 244.56863 341.625 244.6875 C 335.1532 244.77086 328.65945 244.89355 322.1875 244.96875 C 309.96113 245.10275 297.72713 245.15937 285.5 245.15625 C 270.13629 245.14022 254.79302 244.9572 239.4375 244.4375 C 230.1099 244.04441 220.76958 243.65012 211.4375 243.375 C 202.33356 243.0202 193.228 242.49866 184.125 242.125 C 168.47492 241.20684 152.86733 239.91944 137.25 238.5625 C 127.13286 237.69782 117.01214 236.95276 106.90625 236 L 94.125 245.28125 C 104.99419 244.78109 115.86885 245.47727 126.71875 246.09375 C 142.12027 246.98393 157.45516 248.82621 172.8125 250.21875 C 181.69139 250.72978 190.56841 251.33629 199.4375 252 C 209.12303 252.45798 218.80523 252.2227 228.5 252.34375 C 243.89699 252.69441 259.3194 252.81195 274.71875 253 C 286.70765 253.1294 298.66743 253.20779 310.65625 253.34375 C 316.87982 253.41691 323.12031 253.51497 329.34375 253.59375 C 335.94906 253.69987 342.5529 253.38542 349.15625 253.25 C 363.47019 252.68973 377.80063 252.37478 392.125 252.3125 C 400.38375 252.29227 408.61643 252.46565 416.875 252.40625 C 426.67156 252.55345 436.41361 251.32064 446.09375 249.96875 C 456.75319 248.50117 467.42586 247.06362 478.0625 245.4375 C 485.79286 244.30655 493.49976 243.09734 501.28125 242.375 C 505.09861 242.23645 508.82904 241.95637 512.53125 241 C 519.52473 239.31324 524.05909 236.01774 530.625 231.90625 C 529.62756 231.33285 528.62371 230.75845 527.625 230.1875 z M 516.375 237.53125 C 512.83956 239.93192 507.657 242.65994 516.375 237.53125 z "
       id="path3656" />
    <path
       style="fill:#d3bc5f"
       id="path3658"
       d="M 173.68317,235.46207 C 177.4487,234.92731 181.12244,233.81945 184.8576,233.08179 194.06608,232.21762 203.35151,232.42913 212.59258,232.39284 222.08267,232.23096 231.56152,232.1178 241.046,232.51222 245.00958,232.72636 248.86526,233.52752 252.72871,234.35941 256.59654,235.65965 260.54575,236.70016 264.45822,237.86822 272.6066,240.38194 280.95413,242.14886 289.3,243.85742 301.64069,246.5923 314.26236,247.42114 326.85546,247.94815 339.07861,248.33495 351.30858,248.36446 363.53616,248.26143 370.90329,248.21365 378.26811,248.01479 385.63441,247.91321 389.17143,247.55564 392.68311,247.08241 396.23656,246.91617 403.71585,246.42231 411.11557,245.1625 418.53195,244.115 425.92234,243.12893 433.2155,241.66114 440.5081,240.14608 440.88421,240.07631 443.13255,239.67549 443.68298,239.52148 443.91176,239.45746 444.53505,239.11033 444.34075,239.24704 433.59089,246.81101 435.83452,248.33347 428.46354,248.43959 416.2953,249.09028 404.10842,249.21623 391.93235,249.65912 379.3798,250.22091 366.82978,250.80634 354.26757,251.1004 346.29368,251.25388 338.31852,251.31454 330.34372,251.39842 324.81367,251.446 319.28376,251.4496 313.7536,251.42868 306.71304,251.49423 299.68467,251.28027 292.65391,250.94405 285.25212,250.63236 277.86958,249.99851 270.47068,249.62163 265.77183,249.37664 261.06718,249.34269 256.3633,249.37691 253.0502,249.41804 249.73694,249.42473 246.42381,249.38634 241.73786,249.36774 237.05215,249.31231 232.36615,249.30741 226.85642,249.31001 221.34671,249.29718 215.83698,249.29195 210.66698,249.36042 205.52259,249.38352 200.36731,248.9873 196.14257,248.62694 191.90739,248.45209 187.66943,248.3603 184.28837,248.32349 180.9071,248.33801 177.52604,248.36709 175.13472,248.38526 172.74333,248.41535 170.35196,248.3942 169.93866,248.39308 169.52535,248.39196 169.11204,248.39085 169.11204,248.39085 181.66907,239.26676 181.66907,239.26676 L 181.66907,239.26676 C 182.08581,239.26526 182.50256,239.26377 182.9193,239.26228 185.29208,239.23884 187.665,239.26053 190.03779,239.27741 193.36386,239.30893 196.69031,239.3325 200.0151,239.43691 204.23668,239.55287 208.45368,239.77113 212.65699,240.19413 217.74619,240.54414 222.84501,240.49992 227.94436,240.49543 233.46851,240.49024 238.99263,240.47761 244.51678,240.47924 249.27963,240.47311 254.04217,240.41667 258.80492,240.38888 262.11558,240.34473 265.42705,240.32911 268.73751,240.39905 273.379,240.49647 278.02554,240.56436 282.65772,240.88895 289.89671,241.47586 297.11839,242.3543 304.3874,242.4926 311.5522,242.73956 318.71245,242.6939 325.88037,242.61891 331.37285,242.60331 336.86497,242.61648 342.35726,242.6698 350.15662,242.7519 357.95676,242.79308 365.75642,242.72395 378.03533,242.6036 390.31408,242.3705 402.5836,241.85739 415.302,241.33549 428.04577,241.0137 440.69536,239.47738 441.52278,239.4265 442.34902,239.29943 443.17761,239.32473 443.64829,239.3391 444.92503,239.29309 444.5641,239.59552 434.07059,248.38806 436.03211,248.16397 428.38463,249.31214 421.36785,250.55378 414.3116,251.49927 407.26452,252.55442 399.46704,253.73765 391.71703,255.29043 383.85855,256.02237 380.38083,256.27405 376.91825,256.75333 373.4271,256.78571 366.34584,256.71076 359.26565,256.54917 352.18392,256.50855 340.03979,256.39289 327.8898,256.44432 315.75347,255.93724 303.02837,255.31008 290.27577,254.47231 277.76779,251.89932 269.16403,250.28211 260.5521,248.63931 252.09872,246.34106 248.0673,245.27881 244.01256,244.31176 240.00526,243.16561 236.36999,242.25179 232.70201,241.52807 228.96191,241.184 219.81376,240.4816 210.65336,240.3137 201.47821,240.4863 191.89784,240.65508 182.21861,240.62612 172.75241,242.27056 168.93474,243.14111 165.02365,243.86363 161.3774,245.30552 161.3774,245.30552 173.68317,235.46207 173.68317,235.46207 z" />
    <path
       style="fill:#d3bc5f"
       d="M 514.46875 223.875 L 501.1875 232.375 C 503.29114 233.46101 505.3215 234.68821 507.3125 235.96875 C 508.72109 236.98291 508.0396 236.44259 509.40625 237.53125 L 522.53125 229.3125 C 521.11023 228.13211 521.82087 228.70057 520.34375 227.59375 C 518.40667 226.32473 516.41372 225.13019 514.46875 223.875 z "
       id="path3660" />
    <path
       style="fill:#ffe680"
       d="M 106.03125 245.59375 L 93.34375 254.8125 C 101.76738 255.14835 110.18599 256.10858 118.59375 256.78125 C 131.84682 257.7784 145.09936 258.80975 158.3125 260.25 C 166.53532 261.45351 174.77012 262.39169 183.03125 263.28125 C 191.71518 264.17588 200.42583 264.92821 209.125 265.65625 C 216.15157 266.1945 223.18258 266.87665 230.21875 267.28125 C 237.28627 267.48385 244.33794 267.25868 251.40625 267.1875 C 262.02877 267.01087 272.65944 267.23406 283.28125 267.0625 C 291.03559 266.79535 298.80487 266.55211 306.5625 266.40625 C 313.69101 266.30849 320.80818 266.17718 327.9375 266.21875 C 337.01699 266.21863 346.07669 266.07139 355.15625 266.0625 C 365.88519 266.33334 376.61472 266.66832 387.34375 266.9375 C 395.5649 267.14768 403.80864 267.21185 412.03125 267.34375 C 417.40399 267.40176 422.78313 267.41399 428.15625 267.4375 C 433.56353 267.55891 438.94729 267.35395 444.34375 267.03125 C 453.37945 266.50485 462.42019 266.26559 471.46875 266.09375 C 484.30053 265.87021 497.13745 266.02226 509.96875 265.84375 C 521.18954 265.57997 532.40624 264.75617 543.625 264.40625 C 548.24687 264.31207 552.84627 264.22387 557.46875 264.28125 L 569.46875 255.625 C 564.66609 255.44737 559.88962 255.69285 555.09375 256 C 543.76621 256.57623 532.45954 257.30653 521.125 257.71875 C 508.33686 258.06594 495.54141 257.82095 482.75 257.875 C 473.91297 257.85992 465.07711 257.79707 456.25 258.3125 C 450.96009 258.53622 445.66962 258.56586 440.375 258.53125 C 434.92348 258.55999 429.4513 258.57977 424 258.625 C 415.60046 258.72289 407.21232 258.74491 398.8125 258.65625 C 388.07296 258.51014 377.35896 258.10521 366.625 257.75 C 357.68464 257.73784 348.72154 257.59223 339.78125 257.59375 C 332.68657 257.64427 325.59393 257.49653 318.5 257.65625 C 310.58586 257.85943 302.68953 258.29956 294.78125 258.65625 C 284.18069 259.03977 273.5742 258.84513 262.96875 258.8125 C 256.13433 258.74248 249.30188 258.58389 242.46875 258.4375 C 235.25203 258.29076 228.03041 258.02178 220.84375 257.3125 C 212.18437 256.49741 203.52114 255.86061 194.875 254.90625 C 186.49999 253.87904 178.08359 252.99348 169.6875 252.15625 C 156.38121 251.10227 143.06562 250.11744 129.78125 248.8125 C 121.83178 248.01004 113.88282 247.10488 106.03125 245.59375 z "
       id="path3664" />
    <path
       style="fill:#ffe680"
       d="M 538.15625 236.125 L 528.0625 243.125 C 532.42155 244.17724 536.59401 245.99647 540.78125 247.59375 C 543.36359 249.01086 548.2462 249.81314 549.96875 252.53125 C 546.93041 253.1377 543.85258 253.47359 540.78125 253.78125 C 534.42961 254.28885 528.05348 254.24077 521.6875 254.34375 C 512.97668 254.17212 504.30736 253.16033 495.625 252.5 C 486.35779 251.8931 477.06548 251.49975 467.78125 251.28125 C 460.01744 251.19726 452.26424 251.22942 444.5 251.21875 C 439.10923 251.24412 433.70265 251.07581 428.3125 251.0625 C 424.56692 251.02324 420.83939 251.04801 417.09375 251.03125 C 414.29638 251.00805 411.48492 250.98487 408.6875 250.96875 C 406.19724 250.94882 403.709 250.99528 401.21875 251 C 399.91656 250.96761 398.64092 250.98594 397.34375 251.09375 L 384.96875 260.5 C 386.22739 260.01296 387.36534 260.02463 388.71875 260.09375 C 391.18851 260.09845 393.65523 260.11383 396.125 260.09375 C 398.98681 260.07758 401.82574 260.05439 404.6875 260.03125 C 408.44914 260.01456 412.23844 260.04229 416 260 C 421.56475 259.98079 427.12214 259.79908 432.6875 259.8125 C 440.44071 259.78946 448.18446 259.78223 455.9375 259.84375 C 465.33428 259.88529 474.75106 259.99117 484.125 260.71875 C 492.6307 261.42742 501.07809 262.56428 509.59375 263.125 C 516.09275 263.15226 522.57693 262.84281 529.0625 262.4375 C 534.92285 262.04723 540.94125 261.65311 546.4375 259.40625 C 551.41853 256.58055 556.43033 253.7951 561.375 250.90625 C 561.4973 250.8348 561.60378 250.76398 561.71875 250.6875 C 561.58367 250.59145 561.4458 250.50481 561.3125 250.40625 C 560.40575 249.73584 559.64454 248.88771 558.84375 248.09375 C 557.7614 247.02064 555.28771 244.53517 554.5 243.375 C 554.44384 243.29228 554.39768 243.20908 554.34375 243.125 C 554.27723 243.08998 554.23306 243.04657 554.21875 243.03125 C 554.1911 243.0267 554.19015 243.02633 554.1875 243.03125 C 550.36569 241.77889 548.89022 241.34712 544.8125 239.46875 C 542.54762 238.42545 540.34832 237.30613 538.15625 236.125 z M 555.0625 243.4375 C 555.07893 243.46605 555.07753 243.50258 555.09375 243.53125 C 555.40895 243.72697 555.73821 243.86811 556.09375 243.96875 C 555.92288 243.87636 555.50337 243.63738 555.0625 243.4375 z M 549.28125 255.1875 C 549.00778 255.40036 548.703 255.60254 548.40625 255.78125 C 547.96189 256.04886 546.58557 256.76541 547.03125 256.5 C 547.77788 256.05537 548.53292 255.62927 549.28125 255.1875 z "
       id="path3668" />
    <path
       style="fill:#ffe680"
       d="M 533 237.15625 L 522.84375 244.1875 C 513.69485 244.11571 504.54753 243.91039 495.40625 243.53125 C 486.32504 243.27614 477.29854 242.00171 468.21875 241.78125 C 465.27071 241.85663 462.37377 242.51592 459.5 243.125 C 454.82407 245.75854 449.86721 247.95661 445.46875 251.03125 C 444.62154 251.62347 446.72219 252.913 447.71875 253.1875 C 448.55832 253.41876 449.41973 253.46671 450.28125 253.59375 C 450.51299 253.62792 450.71151 253.6549 450.9375 253.6875 L 446.40625 256.96875 C 452.00372 256.34798 457.60426 255.79328 463.21875 255.34375 C 476.01006 257.10409 488.8335 258.65625 501.6875 259.90625 C 509.04755 260.23755 516.45061 261.84101 523.84375 261.21875 C 527.02757 260.95078 528.0183 260.5045 531.09375 259.65625 C 533.98029 258.74084 536.81919 257.71948 539.6875 256.75 C 540.59482 257.92657 541.55515 259.05413 542.59375 260.125 C 546.94337 264.28767 550.16267 265.26685 556.0625 266.15625 C 562.98771 266.57151 569.51269 264.23713 574.53125 259.25 C 572.0712 257.85973 570.28356 256.17222 569.0625 254.375 C 567.91041 255.2122 566.76646 256.07695 565.6875 257 C 562.06512 256.52148 559.27633 255.40516 556.3125 252.90625 C 558.81653 252.57797 561.32243 252.2556 563.84375 252.15625 C 562.98951 251.58803 562.13725 251.01604 561.3125 250.40625 C 560.40575 249.73584 559.64454 248.88771 558.84375 248.09375 C 557.8604 247.11879 555.78546 245.03093 554.8125 243.78125 C 553.09823 243.83436 551.34209 243.86547 549.59375 243.90625 C 547.85851 241.46302 545.18955 240.54028 542.4375 239.65625 C 539.33443 238.67636 536.17256 237.87513 533 237.15625 z M 555.53125 243.75 C 555.71747 243.8392 555.89628 243.91285 556.09375 243.96875 C 556.01952 243.92861 555.88139 243.82479 555.71875 243.75 C 555.65652 243.7521 555.59332 243.74795 555.53125 243.75 z "
       id="path3670" />
    <path
       style="fill:#ffe680"
       d="M 555.59375 249.5 L 542.3125 257.84375 C 543.52973 258.73 544.69204 259.71301 545.65625 260.875 C 545.90216 261.08911 547.29138 262.3361 547.5 262.46875 C 549.29048 263.6072 551.51802 264.06579 553.5625 264.4375 C 559.01201 265.50653 564.51662 266.23292 569.96875 267.28125 C 570.67587 267.46301 571.38576 267.63415 572.09375 267.8125 C 572.2989 267.86418 572.50672 267.9958 572.71875 268.09375 L 571.9375 268.65625 C 577.9054 268.49213 576.42948 269.27787 582.46875 263.3125 C 582.96806 263.04583 583.12701 262.9515 583.5625 262.71875 C 582.5197 262.28507 581.47012 261.92852 580.375 261.625 C 576.35397 260.51056 573.33384 258.78942 571.1875 256.8125 C 569.45354 256.5037 567.71716 256.17889 566 255.78125 C 563.35393 255.29857 560.91467 254.41978 558.875 252.65625 C 557.89572 251.48154 556.76801 250.47339 555.59375 249.5 z "
       id="path3672" />
    <path
       style="fill:#ffe680"
       d="M 561.375 250.4375 L 550.40625 258 C 552.62736 258.40499 554.79487 259.07735 556.9375 259.78125 C 558.71135 260.24513 559.89324 261.51154 561.09375 262.8125 L 571.125 256.75 C 570.0755 255.77264 569.2232 254.73604 568.59375 253.65625 C 568.00906 253.43306 567.40108 253.21941 566.6875 252.96875 C 568.47135 254.31508 568.78862 254.82198 565.96875 253.21875 C 565.48225 253.00632 565.34666 252.97076 564.4375 252.5625 C 563.41263 251.86506 562.37384 251.17164 561.375 250.4375 z "
       id="path3674" />
    <path
       style="fill:#ffe680"
       id="path3676"
       d="M 75.923146,258.06074 C 79.442626,257.50306 82.959403,256.89828 86.501013,256.45555 95.417812,255.55869 104.37462,255.26131 113.32487,254.90394 120.68614,254.64014 128.04878,254.338 135.41561,254.31089 142.31148,254.66325 149.16525,255.49769 156.05544,255.95076 160.84833,256.26616 165.6522,256.13337 170.42472,256.69952 174.4324,257.17265 178.41413,257.76939 182.43851,258.10614 190.75694,258.80513 195.75422,256.15261 173.05047,267.45238 171.9908,267.97979 170.68769,267.30311 169.5051,267.2526 167.65001,267.17338 165.79368,267.12636 163.93797,267.06324 146.83575,266.55223 129.74988,265.67098 112.66025,264.86262 98.829334,264.07461 84.989679,263.4002 71.134905,263.29773 69.894627,262.95931 67.291407,263.27207 66.311959,261.9865 65.990921,261.56513 65.546994,260.3634 66.25609,259.91402 70.970944,256.92607 75.924165,254.33198 80.758203,251.54096 85.734686,249.19732 90.803187,247.0582 96.013272,245.28689 100.20391,243.78683 104.64526,243.71947 109.03747,243.5937 111.22707,243.60028 113.68453,243.32378 115.67412,244.44294 116.26515,244.77539 117.32385,245.66353 117.84417,246.08219 120.68833,248.97672 124.01958,251.15586 127.51432,253.17269 130.49082,254.91288 133.70428,255.86964 137.10806,256.22278 139.90233,256.41694 142.70694,256.36633 145.50597,256.34567 147.03051,256.33107 148.56188,256.41631 150.08519,256.31501 150.29695,256.30092 150.88808,256.09788 150.71481,256.22042 137.0421,265.88956 142.54956,265.84853 135.04787,265.30721 125.01948,265.15814 115.00969,264.81639 105.00789,264.04923 98.346857,263.50026 91.668473,263.09421 85.016047,262.44121 84.528496,262.39335 79.569488,261.88889 78.428307,261.46602 78.014508,261.31268 77.730867,260.92514 77.382146,260.6547 77.343425,260.13137 76.832067,259.37982 77.265983,259.0847 81.904216,255.93008 86.921048,253.35961 91.901758,250.77943 92.515682,250.4614 93.266368,250.55574 93.948457,250.44259 94.877189,250.28852 95.804829,250.12783 96.734217,249.97777 100.06887,249.43936 99.729786,249.50562 103.09632,249.0388 107.594,248.17679 112.01039,248.17248 116.49483,248.98836 116.49483,248.98836 104.11465,257.67262 104.11465,257.67262 L 104.11465,257.67262 C 99.806492,257.0155 95.530354,257.21386 91.228235,257.92372 88.082216,258.39423 84.942376,258.8711 81.855057,259.65588 81.129411,259.84033 79.082593,260.71338 79.700363,260.29036 91.263864,252.37221 96.046784,254.8774 90.706992,252.45339 91.422194,253.73376 95.584883,254.21547 96.402354,254.34927 102.87287,255.40836 109.45045,255.74699 115.98149,256.17967 126.41458,256.6756 136.86272,256.78731 147.30326,256.40592 148.14559,256.35754 150.43449,255.67191 149.83025,256.26076 138.83039,266.98055 141.78764,265.27987 132.99277,265.44631 130.15313,265.45286 127.3051,265.47462 124.47997,265.13869 121.01162,264.55601 117.81539,263.27968 114.82884,261.39992 111.29227,259.30045 107.80865,257.13012 104.7473,254.35953 104.2129,253.98272 103.42348,253.37507 102.79376,253.10657 100.9333,252.31328 98.727242,252.62928 96.775815,252.56249 92.496161,252.71462 88.217108,253.07039 84.148992,254.51991 78.830735,256.35582 73.643184,258.58225 68.694253,261.26479 72.75514,258.897 76.926901,256.70988 80.876913,254.16142 81.109772,254.01118 80.334455,254.03215 80.082122,253.9176 79.902141,253.83589 79.777746,253.65478 79.594996,253.57947 79.472074,253.52882 79.776571,253.78288 79.896164,253.84096 81.030429,254.39182 81.781154,254.42407 83.108039,254.69276 96.345159,256.03851 109.64359,256.67762 122.9211,257.47968 140.33142,258.26208 157.75628,259.10932 175.1893,258.88252 177.23314,258.80545 179.27797,258.75122 181.32081,258.6513 182.69863,258.5839 186.30167,257.29517 185.45035,258.38061 177.1479,268.96625 177.77944,267.47106 170.13164,266.88582 166.03506,266.51759 161.94413,266.07102 157.8601,265.58865 153.29543,264.97167 148.67446,265.01345 144.09581,264.50701 137.1751,263.94731 130.25982,263.23364 123.31251,263.11111 116.18146,263.13732 109.04898,263.01648 101.91977,263.25597 92.738694,263.58042 83.565492,264.13114 74.467347,265.46593 70.755861,266.07539 67.032808,266.68168 63.392745,267.64221 63.392745,267.64221 75.923146,258.06074 75.923146,258.06074 z" />
    <path
       style="fill:#ffe680"
       id="path3678"
       d="M 123.17708,243.48692 C 130.29099,244.55522 137.43747,245.32059 144.53474,246.51118 154.74722,248.50829 164.92489,250.61459 175.24336,252.00573 184.98501,253.10012 194.76656,253.73889 204.53573,254.52178 211.19913,255.10439 217.89158,255.14961 224.56433,255.54835 230.38113,255.92365 236.1611,256.69165 241.97464,257.1199 247.63536,257.50874 253.31222,257.55068 258.9838,257.51988 264.66445,257.45805 270.34472,257.55578 276.0255,257.56852 281.59446,257.78983 287.13109,257.27142 292.66524,256.74086 296.59039,256.42883 300.52974,256.46711 304.46203,256.3416 304.7705,256.30634 305.64018,256.05545 305.38746,256.23581 301.05164,259.33011 296.70522,262.43152 292.12294,265.14754 291.76097,265.36209 291.3155,264.90686 290.90363,264.82072 287.16791,264.03936 283.36985,263.64206 279.58373,263.20983 265.96609,261.99525 252.28843,261.80387 238.62578,261.77128 230.16362,262.08146 221.7181,261.63836 213.26576,261.33128 207.53575,261.01142 201.79098,261.23568 196.06729,260.83754 189.84025,260.58992 183.66599,259.81084 177.49394,258.99844 172.92679,258.37531 168.32597,258.10769 163.7241,257.92173 161.31799,257.82886 158.90974,257.8408 156.50239,257.83599 156.50239,257.83599 168.74667,248.95072 168.74667,248.95072 L 168.74667,248.95072 C 171.17759,248.97379 173.60824,249.00981 176.03911,249.03743 180.61159,249.16146 185.1365,249.74137 189.66042,250.40614 195.80834,251.25789 201.98134,251.9187 208.18908,252.1228 213.89587,252.29904 219.60707,252.34846 225.30922,252.67093 233.44706,253.17588 241.58803,253.62264 249.74311,253.71636 263.50314,254.04939 277.27263,254.24993 291.01547,255.05155 295.57602,255.31765 296.63807,255.33733 300.84836,255.71836 301.76287,255.80112 302.67745,255.88783 303.58794,256.00689 304.13827,256.07885 305.64712,255.92669 305.22852,256.29112 301.32761,259.68725 296.97551,262.53282 292.7183,265.46999 292.53151,265.59886 292.2677,265.41572 292.04241,265.38858 288.1558,265.35624 284.26857,265.52058 280.39284,265.80795 274.94817,266.15373 269.50253,266.40323 264.04437,266.27459 258.31413,266.29523 252.58404,266.41408 246.85408,266.3234 241.11983,266.2335 235.37794,266.27401 229.65234,265.91195 223.94394,265.34893 218.27086,264.40745 212.5317,264.18795 205.92888,263.84191 199.30867,263.79365 192.73897,262.93444 183.06192,261.99424 173.3706,261.21151 163.70516,260.14983 153.34098,258.69272 143.11619,256.45791 132.79058,254.76679 125.41334,253.68069 117.99451,252.62921 110.51935,252.68329 110.51935,252.68329 123.17708,243.48692 123.17708,243.48692 z" />
    <path
       style="fill:#ffe680"
       id="path3680"
       d="M 260.30187,250.92064 C 267.43436,251.54925 274.56936,252.16684 281.71681,252.6287 291.06498,253.21871 300.35913,254.35972 309.63783,255.61344 311.12435,255.79295 312.61525,255.93934 314.09741,256.15197 325.3364,257.76429 312.11325,256.10941 323.95329,257.68863 329.40792,258.41616 334.88638,258.9837 340.3618,259.52545 347.40807,260.21241 354.48167,260.51157 361.55693,260.66345 368.67641,260.94462 375.79675,260.52345 382.90478,260.14563 387.79565,260.2569 392.4971,259.11822 397.24626,258.15093 399.9224,257.40958 402.38974,256.08378 405.02288,255.22064 406.51771,254.6834 408.10655,254.467 409.53793,253.74874 409.87539,253.57941 410.81385,252.94174 410.48587,253.12876 397.33609,260.62664 395.96434,255.87499 397.81926,261.27859 397.69799,261.32403 397.58487,261.41056 397.45544,261.4149 396.54548,261.4454 395.64313,261.21287 394.73282,261.19603 391.94531,261.14446 389.12976,261.37878 386.3538,261.57598 378.00619,262.26221 369.63897,262.55607 361.28533,263.15127 354.02165,263.9192 346.73985,264.53444 339.5197,265.65516 334.44681,266.54548 329.32884,267.10561 324.20825,267.63142 316.77125,268.13328 309.3125,268.16046 301.86224,268.27958 296.45826,268.19296 291.01815,268.79297 285.62278,268.39429 284.94155,268.20049 284.07391,268.07881 283.52609,267.53906 283.12604,267.1449 282.52604,265.82724 283.28937,265.37052 297.05159,257.13633 293.33462,257.7539 301.74716,257.33061 311.53063,256.80343 321.34856,256.75984 331.14559,256.84593 337.97935,256.932 344.80638,257.25257 351.63812,257.41871 356.7912,257.30536 362.03416,257.9274 367.15817,257.22549 367.47565,257.11841 368.38919,256.71811 368.1106,256.90425 363.72964,259.8314 359.37785,262.81652 354.82396,265.46664 354.46099,265.67786 353.98496,265.41743 353.56802,265.36726 352.66778,265.25894 351.77513,265.09127 350.87393,264.99136 348.42268,264.71961 345.96167,264.54423 343.50692,264.30612 334.64543,263.44771 325.74691,263.19917 316.85108,263.03232 311.02311,262.95572 305.19528,263.03813 299.36856,263.15357 299.36856,263.15357 311.6052,254.26628 311.6052,254.26628 L 311.6052,254.26628 C 317.21741,254.40365 322.82958,254.54119 328.44257,254.64366 337.42316,254.81089 346.41036,255.04008 355.36066,255.8439 356.70149,255.93832 358.04233,256.03275 359.38317,256.12717 360.60496,256.19881 361.82744,256.25947 363.04854,256.34209 364.09013,256.41257 365.1395,256.42498 366.17091,256.58645 366.88504,256.69825 368.79309,256.66742 368.2626,257.15838 358.26786,266.40847 360.68089,266.16903 354.78113,266.3616 349.70852,266.41799 344.63433,266.14924 339.56139,266.14668 332.92035,265.9743 326.29607,265.54869 319.66521,265.15786 309.72412,264.91264 299.76102,265.18872 289.86098,266.16358 288.72736,266.34642 285.56813,267.43523 286.46011,266.7121 289.94278,263.88866 294.28952,262.29736 297.90321,259.64367 297.91934,259.63183 296.21189,258.67021 296.70733,258.99054 297.2389,259.33422 297.37693,259.27834 298.12058,259.45812 303.27571,259.86189 308.46729,259.57022 313.63196,259.70547 321.18938,259.63425 328.76518,259.49751 336.28258,258.65297 341.32198,258.05049 346.37118,257.52842 351.39055,256.76847 358.5476,255.81981 365.73805,255.17513 372.93134,254.5699 381.35873,254.03738 389.79921,253.66813 398.20334,252.82009 400.98762,252.56985 407.8102,251.62252 410.47852,252.63057 410.83846,252.76655 411.12661,253.04552 411.45065,253.253 411.6832,253.70661 412.55929,254.31225 412.14832,254.61382 404.69289,260.08456 400.27447,262.38303 392.80841,264.76403 390.26477,265.78539 387.71794,266.88161 385.01518,267.40326 380.39646,268.26674 375.79494,269.02224 371.06843,268.82627 363.84366,269.08645 356.62361,269.63253 349.38993,269.45255 342.52222,269.22416 335.69241,268.50489 328.87141,267.68751 318.55474,266.49291 308.22454,265.42218 297.95224,263.8733 288.69715,262.70075 279.43599,261.53498 270.12127,260.94051 262.63058,260.46468 255.11877,259.80302 247.60813,260.14319 247.60813,260.14319 260.30187,250.92064 260.30187,250.92064 z" />
    <path
       style="fill:#ffe680"
       d="M 522.84375 237.0625 L 510.09375 246.34375 C 513.42381 246.18607 516.76073 246.20162 520.09375 246.1875 C 523.46608 246.17721 526.82645 246.35798 530.1875 246.03125 C 533.09018 245.60209 536.00713 245.35894 538.9375 245.25 C 540.61084 245.31488 539.80552 245.25876 541.40625 245.4375 L 547.90625 240.8125 C 547.0136 240.4516 546.04087 240.03459 544.8125 239.46875 C 543.15907 238.70711 541.54911 237.90329 539.9375 237.0625 C 537.44668 237.25217 534.95185 237.23842 532.4375 237.21875 C 529.24579 237.20507 526.03207 237.22664 522.84375 237.0625 z "
       id="path3682" />
    <path
       style="fill:#d3bc5f;fill-opacity:1"
       id="path3684"
       d="M 160.30187,227.51639 C 166.68468,227.86181 173.08115,227.85539 179.47138,227.90243 190.38597,227.94439 201.30049,227.53318 212.21096,227.23465 221.45967,226.81088 230.69789,226.78488 239.94445,227.19261 249.12096,227.55492 258.27638,228.27506 267.45653,228.58893 274.27293,228.76067 281.0834,229.16304 287.85763,229.93761 294.76419,230.75189 301.68657,231.40322 308.60866,232.07573 314.5126,232.71632 320.45648,233.12199 326.34125,233.92793 330.35702,234.52997 334.40627,234.81801 338.46048,234.97811 341.92202,235.07066 345.38536,235.09972 348.84804,235.07963 353.0864,235.19118 357.3064,234.92419 361.53261,234.63343 366.19187,233.69734 370.78489,232.64462 375.53231,232.31371 381.77931,231.89813 388.0475,232.08397 394.30549,232.03846 401.12634,231.76657 407.92663,232.09267 414.73265,232.49588 426.51764,233.25388 438.33222,232.76142 450.12163,232.39055 457.56418,231.93924 465.00737,231.50348 472.45255,231.09752 476.15393,230.85524 479.85963,230.78403 483.56756,230.79244 485.77136,230.78622 484.66486,230.78618 486.88705,230.79272 486.88705,230.79272 474.45222,239.82704 474.45222,239.82704 L 474.45222,239.82704 C 472.22451,239.83329 473.32996,239.83196 471.13587,239.83121 467.54902,239.86412 463.96203,239.88762 460.3755,239.94547 453.09684,240.12133 445.83262,240.59341 438.55608,240.82311 426.74645,240.84076 414.93598,240.96656 403.12732,240.86075 396.21694,240.73942 389.30873,240.77042 382.39799,240.69595 376.06498,240.69255 369.72821,240.76861 363.41317,241.29365 358.71418,241.84823 354.1117,242.91586 349.42618,243.55704 345.10052,243.855 340.77964,244.24829 336.43777,244.09591 332.94886,244.07423 329.45825,244.12933 325.97209,243.95521 321.9648,243.70744 317.98082,243.19512 314.00501,242.64521 308.22678,241.90842 302.45282,241.12729 296.65246,240.58093 289.65311,239.85532 282.63946,239.3119 275.63828,238.60369 269.0093,237.83851 262.36361,237.21258 255.68658,237.06171 246.57836,236.57218 237.48155,235.88634 228.36617,235.54468 219.21698,235.32337 210.07002,235.35327 200.91865,235.47881 189.88999,235.6847 178.87089,236.26369 167.84032,236.35289 161.09566,236.40155 154.34639,236.40898 147.60813,236.73893 147.60813,236.73893 160.30187,227.51639 160.30187,227.51639 z" />
    <path
       style="fill:#d3bc5f;fill-opacity:1"
       d="M 526.4375 229.5 L 516.46875 236.75 C 518.9074 236.53994 521.32571 236.86463 523.71875 237.3125 C 526.87091 237.82596 529.82934 238.90028 532.71875 240.21875 L 534.15625 241 L 540.0625 237.125 C 535.45192 234.72564 530.95938 232.06669 526.4375 229.5 z "
       id="path3686" />
    <path
       style="fill:#d3bc5f;fill-opacity:1"
       d="M 498.375 238.125 L 485.625 247.40625 C 489.33971 247.26012 493.03274 247.20704 496.75 247.1875 C 502.85474 247.1473 508.95786 247.07742 515.0625 247.15625 C 518.86617 247.15733 516.97934 247.16141 520.8125 247.15625 L 532.90625 238.375 C 529.08304 238.36984 530.98983 238.37392 527.1875 238.375 C 521.10582 238.45084 515.01926 238.38738 508.9375 238.34375 C 505.41815 238.32498 501.89145 238.27789 498.375 238.125 z "
       id="path3688" />
    <path
       style="fill:#00ff00;fill-opacity:1"
       d=""
       id="path3690" />
    <path
       style="fill:#00ff00;fill-opacity:1"
       d=""
       id="path3692" />
    <path
       style="fill:#00ff00;fill-opacity:1"
       d="M 151.23444,232.0449 C 151.23444,231.56287 150.80061,230.73465 150.27037,230.20441 149.39395,229.32799 149.64492,229.24035 153.03111,229.24035 155.07975,229.24035 156.75591,229.34084 156.75591,229.46366 156.75591,229.79846 152.15486,232.92133 151.66158,232.92133 151.42665,232.92133 151.23444,232.52694 151.23444,232.0449 z"
       id="path3694" />
    <path
       style="fill:#00ff00;fill-opacity:1"
       d="M 327.92155,233.86914 C 314.35295,232.29729 276.01688,228.63565 268.7191,228.21448 L 261.35714,227.7896 267.79886,227.03008 C 300.21977,223.20745 316.23677,222.34927 360.84062,222.04493 407.92792,221.72365 417.05565,222.12155 426.38781,224.90226 437.81784,228.30807 451.40778,230.4561 462.18114,230.55978 L 471.78659,230.65221 465.95836,231.25503 C 462.75284,231.58658 440.39088,231.89741 416.26511,231.94577 375.91565,232.02663 372.00673,232.12483 367.49211,233.17098 361.03844,234.66647 338.27163,235.06815 327.92155,233.86914 z"
       id="path3696" />
    <path
       style="fill:#00ff00;fill-opacity:1"
       id="path3698"
       d="M 330.60683,217.23313 C 333.76526,217.02174 336.9226,217.23117 340.08031,217.28566 343.66349,217.34749 347.44426,217.2741 351.0266,217.2298 357.81706,217.10453 364.60491,216.88112 371.39583,216.7781 374.30096,216.6815 377.20023,216.94152 380.09555,217.14101 381.04753,217.27819 381.99951,217.41538 382.95149,217.55257 382.95149,217.55257 376.36808,222.27053 376.36808,222.27053 L 376.36808,222.27053 C 375.2226,222.27101 374.07712,222.2715 372.93164,222.27198 370.14292,222.08496 367.36769,221.63778 364.56274,221.7444 358.08669,221.66462 351.61131,221.5127 345.13448,221.52018 337.85358,221.58373 330.57481,221.75918 323.32806,222.52147 323.32806,222.52147 330.60683,217.23313 330.60683,217.23313 z" />
    <path
       style="fill:#00ff00;fill-opacity:1"
       id="path3700"
       d="M 322.68274,221.42781 C 332.03322,220.95636 341.36095,220.141 350.7099,219.61255 358.28945,219.29226 365.8763,219.01688 373.452,219.5294 374.11821,219.59066 374.78442,219.65193 375.45063,219.71319 375.45063,219.71319 368.49647,224.64436 368.49647,224.64436 L 368.49647,224.64436 C 367.88042,224.55734 367.26438,224.47032 366.64833,224.38329 359.41337,223.60926 352.11345,223.71724 344.85021,223.92022 335.10119,224.46247 325.3566,225.21984 315.68871,226.62221 315.68871,226.62221 322.68274,221.42781 322.68274,221.42781 z" />
    <path
       style="fill:#00ff00;fill-opacity:1"
       id="path3702"
       d="M 299.67999,219.04344 C 302.00561,219.09517 304.32432,219.20854 306.65125,219.24051 318.89153,219.18336 331.13269,219.01547 343.37085,218.75628 353.32995,218.56502 363.28769,218.31162 373.24664,218.11437 378.98027,217.89701 384.69383,218.45417 390.39021,219.02317 395.20397,219.35306 400.00352,219.85516 404.81838,220.16833 407.9257,220.49625 411.03702,220.75729 414.15873,220.89196 416.80068,220.87171 419.41974,221.1108 422.03956,221.43076 425.78697,221.77387 429.51795,222.23071 433.2419,222.76743 436.93642,223.18146 440.58913,223.88512 444.2529,224.50222 446.90411,224.97904 445.57637,224.75995 448.23611,225.15966 448.23611,225.15966 441.28517,230.04871 441.28517,230.04871 L 441.28517,230.04871 C 438.61052,229.62367 439.9621,229.83331 437.23033,229.42042 433.57426,228.75334 429.91091,228.11882 426.21421,227.71733 422.50675,227.15487 418.79105,226.67717 415.04919,226.40321 412.37983,226.19031 409.70791,226.12241 407.03373,226.00782 403.98444,225.7966 400.94825,225.44037 397.91002,225.11084 393.18789,224.72639 388.48404,224.15162 383.76369,223.7448 378.09094,223.26059 372.41742,222.80724 366.71674,222.86127 357.13186,222.71397 347.54597,222.59483 337.95981,222.70118 325.31782,222.84632 312.68835,223.28354 300.0678,224.0483 297.48556,224.19939 294.9051,224.36974 292.31813,224.39214 292.31813,224.39214 299.67999,219.04344 299.67999,219.04344 z" />
  </g>
  <g
     inkscape:label="Layer 1"
     inkscape:groupmode="layer"
     id="layer1"
     transform="translate(0,-572.36218)"
     style="display:inline">
    <path
       style="fill:none;stroke:#000000;stroke-width:1px;stroke-linecap:butt;stroke-linejoin:miter;stroke-opacity:1"
       d="M 67.659587,837.68133 587.23405,837.46856 526.59575,801.29835 447.87234,782.14941 319.14894,770.44729 193.61703,775.76643 136.17022,791.72388 67.659587,837.68133 z"
       id="island"
       sodipodi:nodetypes="cccccccc" />
  </g>
</svg>
